<svg xmlns="http://www.w3.org/2000/svg" viewBox="0 0 496.66 498.3"><defs><style>.cls-1{fill:#e96b20;}.cls-2{fill:#f88d35;}.cls-3{fill:#faa749;}.cls-4{fill:#02425c;}.cls-5{fill:#056b95;}.cls-6{fill:#0090c6;}</style></defs><g id="Layer_2" data-name="Layer 2"><g id="Layer_1-2" data-name="Layer 1"><path class="cls-1" d="M341.24,433.08v65c-2.58.12-5.19.19-7.82.19h-168A165.33,165.33,0,0,1,0,332.89V170.63H60A45.39,45.39,0,0,1,105.4,216V387.69H295.85A45.39,45.39,0,0,1,341.24,433.08Z"/><path class="cls-2" d="M105.49,332.57V487.1A165.35,165.35,0,0,1,0,332.89V170.63H60A45.39,45.39,0,0,1,105.4,216V332.47Z"/><path class="cls-3" d="M105.49,332.57l-.09.09L22.25,415.81A164.65,164.65,0,0,1,0,332.89V227.08L105.4,332.47Z"/><path class="cls-4" d="M155.42,65.22V.19C158,.07,160.62,0,163.25,0h168a165.33,165.33,0,0,1,165.4,165.41V327.67h-60a45.39,45.39,0,0,1-45.39-45.39V110.61H200.81A45.39,45.39,0,0,1,155.42,65.22Z"/><path class="cls-5" d="M391.17,165.73V11.2A165.35,165.35,0,0,1,496.66,165.41V327.67h-60a45.39,45.39,0,0,1-45.39-45.39V165.82Z"/><path class="cls-6" d="M391.17,165.73l.1-.09,83.14-83.15a164.62,164.62,0,0,1,22.25,82.92V271.22L391.27,165.82Z"/></g></g></svg>