<?xml version="1.0" encoding="utf-8"?>
<!-- Generator: Adobe Illustrator 28.0.0, SVG Export Plug-In . SVG Version: 6.00 Build 0)  -->
<svg version="1.1" id="Layer_1" xmlns="http://www.w3.org/2000/svg" xmlns:xlink="http://www.w3.org/1999/xlink" x="0px" y="0px"
	 viewBox="0 0 784 233.2" style="enable-background:new 0 0 784 233.2;" xml:space="preserve" width="100px">
<style type="text/css">
	.st0{fill:#04425B;}
	.st1{fill:#E96B20;}
	.st2{fill:#F88D35;}
	.st3{fill:#FAA749;}
	.st4{fill:#02425C;}
	.st5{fill:#056B95;}
	.st6{fill:#0090C6;}
</style>
<g>
	<path class="st0" d="M355.1,16.1l0,91.6c0.2,1.3-0.8,2.6-2.1,2.7c-0.2,0-0.4,0-0.6,0h-7.9c-1.3,0-2.5-0.5-3.4-1.5l-52.5-56.1v53.7
		c0.2,1.3-0.8,2.6-2.1,2.7c-0.2,0-0.4,0-0.6,0H269c-1.3,0.2-2.6-0.8-2.7-2.1c0-0.2,0-0.4,0-0.6l0-91.4c-0.2-1.3,0.8-2.6,2.1-2.7
		c0.2,0,0.4,0,0.6,0h7.9c1.3,0,2.5,0.5,3.4,1.5l52.4,55.9V16.1c-0.2-1.3,0.8-2.6,2.1-2.7c0.2,0,0.4,0,0.6,0h17
		c1.3-0.1,2.6,0.8,2.7,2.2C355.2,15.7,355.2,15.9,355.1,16.1z"/>
	<path class="st0" d="M375.3,67V16c-0.2-1.3,0.8-2.6,2.1-2.7c0.2,0,0.4,0,0.6,0h17.5c1.3-0.2,2.6,0.8,2.7,2.1c0,0.2,0,0.4,0,0.6
		v52.8c0,10.6,5.9,21.1,20.3,21.1s20.6-10.5,20.6-21.2V16c-0.2-1.3,0.8-2.6,2.1-2.7c0.2,0,0.4,0,0.6,0h17.5c1.3-0.2,2.6,0.8,2.7,2.1
		c0,0.2,0,0.4,0,0.6v51c0,28.5-17.3,43.4-43.5,43.4C392.7,110.4,375.4,95.5,375.3,67z"/>
	<path class="st0" d="M564.2,16.3l-37.6,90.7c-0.5,1.3-1.7,2.1-3.1,2h-9.7c-1.4,0.1-2.7-0.7-3.1-2l-37.8-90.7c-0.8-1.9,0-3.1,2-3.1
		h19.9c1.4,0,2.7,0.8,3.1,2.2l15.8,42.8l5.7,19.4l5.5-19.5l15-42.7c0.4-1.4,1.7-2.3,3.1-2.2h19.1C564.2,13.2,565,14.4,564.2,16.3z"
		/>
	<path class="st1" d="M342.4,122.6v4.6c0,1.1-0.8,2-1.9,2c-0.1,0-0.1,0-0.2,0h-30.8l0,85.4c0.1,1.1-0.6,2-1.7,2.2
		c-0.1,0-0.2,0-0.4,0h-5.7c-1.1,0.1-2-0.7-2.1-1.8c0-0.1,0-0.2,0-0.2v-85.3h-31.5c-1.1,0-2-0.8-2.1-1.9c0,0,0-0.1,0-0.1v-4.7
		c0-1.1,0.8-2,1.9-2c0.1,0,0.1,0,0.2,0h72.1c1.1-0.1,2,0.8,2,1.8C342.4,122.6,342.4,122.6,342.4,122.6z"/>
	<path class="st1" d="M346.9,168.7c0-27.6,20.9-49.4,49.9-49.4s49.7,21.5,49.7,49.3c0,28.2-20.8,49.2-49.6,49.3
		S347,196.8,346.9,168.7z M436.7,168.7c0-22.8-17.3-40.5-39.8-40.5c-22.8,0-40.1,17.8-40,40.5c0,23.4,17.3,40.3,40.1,40.3
		C419.5,209,436.7,192.2,436.7,168.7L436.7,168.7z"/>
	<path class="st1" d="M460.3,168.7c0-27.6,20.9-49.4,49.9-49.4s49.7,21.5,49.7,49.4c0,28.2-20.8,49.2-49.6,49.3
		S460.3,196.7,460.3,168.7z M550,168.6c0-22.9-17.3-40.5-39.8-40.5c-22.8,0-40.1,17.8-40,40.5c0,23.4,17.2,40.3,40.1,40.3
		C532.8,209,550.1,192.1,550,168.6L550,168.6z"/>
	<path class="st1" d="M642.8,209.9v4.6c0.1,1.1-0.8,2-1.8,2c-0.1,0-0.1,0-0.2,0h-58c-1.1,0.1-2-0.7-2.1-1.8c0-0.1,0-0.2,0-0.2v-92
		c-0.1-1.1,0.7-2,1.8-2.1c0.1,0,0.1,0,0.2,0h5.6c1.1-0.1,2,0.8,2,1.8c0,0.1,0,0.1,0,0.2v85.4h50.3c1.1-0.1,2,0.7,2.1,1.8
		C642.8,209.7,642.8,209.8,642.8,209.9z"/>
	<path class="st1" d="M650.9,209.2c-0.9-0.5-1.2-1.7-0.7-2.6c0.1-0.1,0.1-0.2,0.2-0.3l3-4.8c0.4-0.9,1.5-1.3,2.4-0.9
		c0.2,0.1,0.3,0.2,0.5,0.3c7.9,5.2,17.1,8,26.5,7.9c13.4,0,22.6-6.6,22.6-17.7c0-10.7-6.6-16.5-23.4-20.2c-19-4.2-29-11.7-29-26.6
		c0-14.5,13-25.2,30.5-25.2c13.3,0,21.6,3,27.8,7.5c0.9,0.6,1.1,1.9,0.5,2.8c0,0,0,0.1-0.1,0.1l-2.7,4.1c-0.4,0.9-1.4,1.3-2.2,0.9
		c-0.2-0.1-0.4-0.2-0.5-0.3c-6.2-4.2-12.2-6.3-22.4-6.3c-12.6,0-21.1,6.2-21,16.2s7.7,14.2,21.6,17.5c20.9,4.9,30.8,13,30.8,28.7
		c0,17.8-14.5,27.5-31.9,27.5C670.5,217.8,659.3,214.8,650.9,209.2z"/>
	<path class="st1" d="M172.7,192v27c-1.1,0-2.1,0.1-3.2,0.1H99.8c-37.9,0-68.6-30.7-68.6-68.5c0,0,0,0,0-0.1V83.2h24.9
		c10.4,0,18.8,8.4,18.8,18.8v71.2h79C164.3,173.2,172.7,181.6,172.7,192L172.7,192z"/>
	<path class="st2" d="M75,150.3v64.1c-26.4-10.3-43.8-35.7-43.8-64V83.2h24.9c10.4,0,18.8,8.4,18.8,18.8L75,150.3L75,150.3z"/>
	<path class="st3" d="M75,150.3L75,150.3l-34.5,34.5c-6.1-10.4-9.2-22.3-9.2-34.4v-43.9L75,150.3L75,150.3z"/>
	<path class="st4" d="M95.7,39.5v-27c1.1,0,2.2-0.1,3.2-0.1h69.7c37.9,0,68.6,30.7,68.6,68.5c0,0,0,0,0,0.1v67.3h-24.9
		c-10.4,0-18.8-8.4-18.8-18.8c0,0,0,0,0,0V58.3h-78.9C104.1,58.3,95.7,49.9,95.7,39.5C95.7,39.5,95.7,39.5,95.7,39.5z"/>
	<path class="st5" d="M193.4,81.2V17.1c26.4,10.3,43.8,35.7,43.8,64v67.3h-24.9c-10.4,0-18.8-8.4-18.8-18.8c0,0,0,0,0,0L193.4,81.2
		L193.4,81.2z"/>
	<path class="st6" d="M193.4,81.2L193.4,81.2l34.5-34.5c6.1,10.4,9.2,22.3,9.2,34.4v43.9L193.4,81.2L193.4,81.2z"/>
</g>
</svg>
