<svg xmlns="http://www.w3.org/2000/svg" viewBox="0 0 700 700" height="50px"><defs><style>.cls-1{fill:none;}.cls-2{fill:#e96b20;}.cls-3{fill:#f88d35;}.cls-4{fill:#faa749;}.cls-5{fill:#02425c;}.cls-6{fill:#056b95;}.cls-7{fill:#0090c6;}</style></defs><g id="Layer_2" data-name="Layer 2"><g id="Layer_1-2" data-name="Layer 1"><rect class="cls-1" width="700" height="700"/><path class="cls-2" d="M461.22,571.39v76.86c-3.05.14-6.13.22-9.24.22H253.42A195.38,195.38,0,0,1,58,453V261.23h70.91a53.64,53.64,0,0,1,53.64,53.64V517.75H407.58A53.64,53.64,0,0,1,461.22,571.39Z"/><path class="cls-3" d="M182.61,452.61V635.24A195.42,195.42,0,0,1,58,453V261.23h70.91a53.64,53.64,0,0,1,53.64,53.64V452.5Z"/><path class="cls-4" d="M182.61,452.61l-.11.11L84.24,551A194.57,194.57,0,0,1,58,453v-125L182.5,452.5Z"/><path class="cls-5" d="M241.62,136.66V59.81c3.06-.14,6.14-.22,9.25-.22H449.42A195.4,195.4,0,0,1,644.9,255.06V446.82H574a53.64,53.64,0,0,1-53.64-53.64V190.31H295.27A53.65,53.65,0,0,1,241.62,136.66Z"/><path class="cls-6" d="M520.23,255.45V72.82A195.45,195.45,0,0,1,644.9,255.06V446.82H574a53.64,53.64,0,0,1-53.64-53.64V255.56Z"/><path class="cls-7" d="M520.23,255.45l.11-.11,98.26-98.26a194.44,194.44,0,0,1,26.3,98V380.11L520.34,255.56Z"/></g></g></svg>